<svg xmlns="http://www.w3.org/2000/svg">
  <defs>
    <symbol id="logo" viewBox="0 0 132 24">
      <path d="M4.98 13.28 0 5h2.98l3.34 5.74h.04L9.7 5h2.98L7.7 13.28V19H4.98v-5.72ZM12.67 16.7V7.3l2.3-2.3h7.2l2.3 2.3v9.4l-2.3 2.3h-7.2l-2.3-2.3Zm8.06-.02 1.02-1.02V8.34l-1.02-1.02h-4.32l-1.02 1.02v7.32l1.02 1.02h4.32ZM26.374 16.6V5h2.72v10.66l1.02 1.02h3.92l1.02-1.02V5h2.72v11.6l-2.4 2.4h-6.6l-2.4-2.4ZM50.878 14.36V19h-2.72v-4.02l-1.2-1.34h-4.36V19h-2.72V5h8.78l2.14 2.16v4.24l-1.36 1.38 1.44 1.58Zm-8.28-2.96h4.82l.7-.7V7.98l-.7-.7h-4.82v4.12ZM57.823 5h10.12v2.3h-7.4v3.54h6.82v2.26h-6.82v3.6h7.4V19h-10.12V5ZM69.452 5h2.44l6.24 9.5h.04V5h2.62v14h-2.44l-6.24-9.48h-.04V19h-2.62V5ZM82.898 5h10.12v2.3h-7.4v3.54h6.82v2.26h-6.82v3.6h7.4V19h-10.12V5ZM105.527 14.36V19h-2.72v-4.02l-1.2-1.34h-4.36V19h-2.72V5h8.78l2.14 2.16v4.24l-1.36 1.38 1.44 1.58Zm-8.28-2.96h4.82l.7-.7V7.98l-.7-.7h-4.82v4.12ZM107.323 16.7V7.3l2.3-2.3h6.96l2.26 2.26V9.4h-2.72V8.26l-.94-.94h-4.12l-1.02 1.02v7.32l1.02 1.02h4.16l.98-.98v-2.18h-3V11.2h5.64v5.5l-2.3 2.3h-6.92l-2.3-2.3ZM123.828 13.28 118.848 5h2.98l3.34 5.74h.04l3.34-5.74h2.98l-4.98 8.28V19h-2.72v-5.72Z"/>
    </symbol>

	<!-- social -->
    <symbol id="icon-facebook" viewBox="0 0 28 28">
      <path d="M17.08 4.06h.84v3.15h-1.05c-.42 0-.84 0-1.05.21-.21.21-.21.42-.21.91v1.12h2.31v2.66h-2.31v11.55h-3.57V12.04h-1.89V9.38h1.89v-.91c0-1.54.21-2.66.63-3.15.63-.91 1.89-1.33 3.78-1.33.21.07.42.07.63.07Z"/>
    </symbol>
    <symbol id="icon-instagram" viewBox="0 0 28 28">
      <path d="M25.128 9.412a8.098 8.098 0 0 0-.521-2.752 5.73 5.73 0 0 0-3.276-3.27 8.23 8.23 0 0 0-2.719-.522C17.416 2.815 17.036 2.8 14 2.8c-3.038 0-3.427 0-4.615.068-.93.02-1.849.195-2.718.522A5.726 5.726 0 0 0 3.39 6.66a8.127 8.127 0 0 0-.522 2.713c-.053 1.196-.07 1.575-.07 4.607 0 3.033 0 3.42.07 4.607.02.93.195 1.846.522 2.716a5.73 5.73 0 0 0 3.276 3.269 8.2 8.2 0 0 0 2.718.559c1.198.053 1.577.07 4.615.07 3.037 0 3.427 0 4.615-.07a8.208 8.208 0 0 0 2.719-.52 5.736 5.736 0 0 0 3.275-3.27c.327-.87.502-1.786.521-2.716.054-1.195.07-1.574.07-4.608-.003-3.032-.003-3.417-.072-4.605ZM13.99 19.715a5.744 5.744 0 0 1-5.75-5.741 5.745 5.745 0 0 1 5.75-5.741c3.175 0 5.75 2.57 5.75 5.741a5.746 5.746 0 0 1-5.75 5.74Zm5.98-10.356a1.338 1.338 0 1 1 0-2.677 1.339 1.339 0 1 1 0 2.677Z"/>
      <path d="M13.993 17.479a3.503 3.503 0 1 0 0-7.007 3.503 3.503 0 0 0 0 7.007Z"/>
    </symbol>
    <symbol id="icon-youtube" viewBox="0 0 28 28">
      <path fill-rule="evenodd" clip-rule="evenodd" d="M21.21 5.25c-1.19-.07-3.64-.14-7.35-.14h-.49c-3.57 0-5.95.07-7.14.21-1.61.14-2.73.56-3.36 1.12-.56.49-.98 1.4-1.12 2.59-.07.77-.14 2.38-.14 4.83v.35c0 2.31.07 3.92.21 4.69.21 1.12.56 1.96 1.26 2.45.7.56 1.89.91 3.57 1.05 1.19.07 3.64.14 7.35.14h.49c3.57 0 5.95-.07 7.14-.21 1.61-.14 2.73-.56 3.36-1.12.56-.49.98-1.4 1.12-2.59.07-.77.14-2.38.14-4.83v-.35c0-2.31-.07-3.92-.21-4.69-.21-1.12-.56-1.96-1.26-2.45-.7-.56-1.89-.91-3.57-1.05Zm-2.73 8.61-7.7 4.62V9.24l7.7 4.62Z"/>
    </symbol>

	<!-- menu -->
    <symbol id="icon-menu" viewBox="0 0 32 32">
      <path d="M28 13.333H4M28 8H4M28 18.667H4M28 24H4" stroke="#242424" stroke-width="2" stroke-linecap="round" stroke-linejoin="round"/>
    </symbol>
    <symbol id="icon-menu-close" viewBox="0 0 32 32">
      <path d="M24 8 8 24M8 8l16 16" stroke="#F4F4F4" stroke-width="2" stroke-linecap="round" stroke-linejoin="round"/>
    </symbol>

	<!-- hero -->
    <symbol id="icon-sun" viewBox="0 0 32 32">
      <path d="m14.254 13.505.363.372L10.151 1.08l5.321 12.466.018-.52.441-13.027.441 13.026.018.52 5.321-12.466-4.466 12.797 9.465-9.702-8.787 10.32 12.331-5.628-11.922 6.449 13.531-.793-13.446 1.707 12.904 4.148-13.155-3.266 10.534 8.53-11.087-7.798 6.741 11.759-7.521-11.276 2.038 13.4-2.94-13.232-2.94 13.232 2.038-13.4-7.521 11.276 6.741-11.759-11.087 7.798 10.534-8.53L.541 20.377l12.904-4.148-13.446-1.707 13.531.793L1.608 8.866l12.331 5.628-8.787-10.32 9.102 9.33zm.931.566-.646.4-.458.607-.208.731.07.757.339.68.562.512.709.275h.76l.709-.275.562-.512.339-.68.07-.757-.208-.731-.458-.607-.646-.4-.747-.14-.747.14z"/>
    </symbol>

	<!-- stars -->
    <symbol id="star-active" viewBox="0 0 18 18">
      <path d="M8.049 2.927c.3-.921 1.603-.921 1.902 0l.845 2.6a1 1 0 0 0 .951.692h2.735c.969 0 1.371 1.24.588 1.809l-2.213 1.607a1 1 0 0 0-.363 1.118l.845 2.601c.3.921-.755 1.688-1.539 1.118l-2.212-1.607a1 1 0 0 0-1.176 0L6.2 14.472c-.784.57-1.838-.197-1.539-1.118l.845-2.6a1 1 0 0 0-.363-1.119L2.93 8.028c-.783-.57-.38-1.81.588-1.81h2.735a1 1 0 0 0 .95-.69l.846-2.6Z" fill="#EEA10C"/>
    </symbol>
    <symbol id="star-inactive" viewBox="0 0 18 18">
      <path d="M8.049 2.927c.3-.921 1.603-.921 1.902 0l.845 2.6a1 1 0 0 0 .951.692h2.735c.969 0 1.371 1.24.588 1.809l-2.213 1.607a1 1 0 0 0-.363 1.118l.845 2.601c.3.921-.755 1.688-1.539 1.118l-2.212-1.607a1 1 0 0 0-1.176 0L6.2 14.472c-.784.57-1.838-.197-1.539-1.118l.845-2.6a1 1 0 0 0-.363-1.119L2.93 8.028c-.783-.57-.38-1.81.588-1.81h2.735a1 1 0 0 0 .95-.69l.846-2.6Z" fill="#F4F4F4" fill-opacity=".2"/>
    </symbol>

	<!-- exercise cards -->
    <symbol id="arrow" viewBox="0 0 16 16">
      <path d="M7.5 14 14 7.5m0 0L7.5 1M14 7.5H1" stroke="#242424" stroke-width="1.3" stroke-linecap="round" stroke-linejoin="round"/>
    </symbol>
    <symbol id="group" viewBox="0 0 16 16">
      <path d="M14.823 4.725a.593.593 0 0 0-.833-.074l-1.641 1.378-.755-1.87a.58.58 0 0 0-.114-.18 1.606 1.606 0 0 0-.791-.809 1.628 1.628 0 0 0-.491-.13c-.037-.02-.07-.045-.111-.058l-2.888-.805a.594.594 0 0 0-.458.063.578.578 0 0 0-.36.336L5.294 5.372a.594.594 0 0 0 .338.767.593.593 0 0 0 .766-.34l.918-2.36 1.315.365c-.032.052-.067.101-.093.156L6.852 7.615c-.024.054-.037.108-.054.164l-2.05 3.435-3.428 1.147a.876.876 0 0 0 1.04 1.41l3.51-1.209a.842.842 0 0 0 .243-.29c.045-.047.095-.084.129-.142l1.221-2.048 2.169 1.848-2.32 2.614a.875.875 0 1 0 1.31 1.16l2.896-3.261c.09-.101.144-.217.18-.338.022-.066.022-.135.027-.203 0-.035.013-.066.01-.098a.858.858 0 0 0-.3-.637L9.44 9.466c.143-.137.266-.3.354-.492l1.293-2.8.414 1.104c.017.098.05.194.12.275a.57.57 0 0 0 .226.158c.009.004.02.005.03.008.053.019.108.037.164.04a.563.563 0 0 0 .203-.022h.003c.018-.005.036-.002.054-.01a.586.586 0 0 0 .233-.17L14.89 5.56c.25-.21.145-.583-.066-.834ZM11.845 3.301a1.65 1.65 0 1 0 0-3.301 1.65 1.65 0 0 0 0 3.301Z" fill="#F4F4F4"/>
    </symbol>
    <symbol id="trash" viewBox="0 0 16 16">
      <path d="M10.667 4v-.533c0-.747 0-1.12-.146-1.406a1.333 1.333 0 0 0-.582-.582c-.286-.146-.659-.146-1.406-.146H7.467c-.747 0-1.12 0-1.406.146-.25.127-.455.331-.582.582-.146.285-.146.659-.146 1.406V4m1.334 3.667V11m2.666-3.333V11M2 4h12m-1.333 0v7.467c0 1.12 0 1.68-.218 2.108a2 2 0 0 1-.874.874c-.428.218-.988.218-2.108.218H6.533c-1.12 0-1.68 0-2.108-.218a2 2 0 0 1-.874-.874c-.218-.428-.218-.988-.218-2.108V4" stroke="#242424" stroke-width="1.3" stroke-linecap="round" stroke-linejoin="round"/>
    </symbol>
    <symbol id="close" viewBox="0 0 24 24">
      <path d="M17 7 7 17M7 7l10 10" stroke="#F4F4F4" stroke-width="1.5" stroke-linecap="round" stroke-linejoin="round"/>
    </symbol>
    <symbol id="heart" viewBox="0 0 18 18">
      <path d="M15.63 3.458a4.125 4.125 0 0 0-5.834 0L9 4.253l-.795-.795A4.126 4.126 0 0 0 2.37 9.293l.795.795L9 15.923l5.835-5.835.795-.795a4.127 4.127 0 0 0 0-5.835Z" stroke="#242424" stroke-width="1.5" stroke-linecap="round" stroke-linejoin="round"/>
    </symbol>

	<!-- search -->
    <symbol id="search" viewBox="0 0 18 18" fill="none">
      <path d="M8.25 14.25a6 6 0 1 0 0-12 6 6 0 0 0 0 12ZM15.75 15.75l-3.263-3.262" stroke="#242424" stroke-width="1.5" stroke-linecap="round" stroke-linejoin="round"/>
    </symbol>
    <symbol id="search-cansel" viewBox="0 0 10 10" fill="none">
      <path d="m8.75 1.25-7.5 7.5m0-7.5 7.5 7.5" stroke="#242424" stroke-width="1.5" stroke-linecap="round" stroke-linejoin="round"/>
    </symbol>

	<!-- quote -->
    <symbol id="icon-news" viewBox="0 0 34 32">
      <path fill="#242424" style="fill:var(--color1, #242424)" d="M32 16c0 8.837-7.163 16-16 16S0 24.837 0 16 7.163 0 16 0s16 7.163 16 16z"/>
      <path fill="#f4f4f4" style="fill:var(--color2, #f4f4f4)" d="M10.6 11.714H9.4c-.332 0-.6.287-.6.643v2.786h-.6c-.11 0-.2.096-.2.214v1.286c0 .118.09.214.2.214h.6v2.786c0 .356.268.643.6.643h1.2c.332 0 .6-.287.6-.643v-7.286c0-.356-.268-.643-.6-.643zm13.2 3.429h-.6v-2.786c0-.356-.267-.643-.6-.643h-1.2c-.332 0-.6.287-.6.643v7.286c0 .356.267.643.6.643h1.2c.332 0 .6-.287.6-.643v-2.786h.6c.11 0 .2-.096.2-.214v-1.286c0-.118-.09-.214-.2-.214zM19.4 10h-1.2c-.332 0-.6.287-.6.643v4.5h-3.2v-4.5c0-.356-.268-.643-.6-.643h-1.2c-.332 0-.6.287-.6.643v10.714c0 .356.268.643.6.643h1.2c.332 0 .6-.287.6-.643v-4.5h3.2v4.5c0 .356.267.643.6.643h1.2c.332 0 .6-.287.6-.643V10.643c0-.356-.267-.643-.6-.643z"/>
    </symbol>
    <symbol id="icon-commas" viewBox="0 0 32 32">
      <path fill="#f4f4f4" style="fill:var(--color1, #f4f4f4)" d="M8.201 17.469c1.546-.613 2.785-.452 3.719.481s1.21 2.421.831 4.463c-.292 1.517-.933 2.683-1.925 3.5-.963.787-2.085 1.181-3.369 1.181-1.75 0-2.96-.671-3.631-2.013-.671-1.371-.802-3.208-.394-5.512.233-1.254.613-2.523 1.137-3.806s1.225-2.596 2.1-3.938 2.013-2.508 3.413-3.5 2.946-1.633 4.637-1.925l-.437 4.638c-1.429.292-2.698 1.035-3.806 2.231-1.108 1.167-1.867 2.567-2.275 4.2zm13.169 0c1.546-.613 2.785-.452 3.719.481s1.21 2.421.831 4.463c-.292 1.517-.933 2.683-1.925 3.5-.963.787-2.085 1.181-3.369 1.181-1.75 0-2.96-.671-3.631-2.013-.671-1.371-.802-3.208-.394-5.512.233-1.254.613-2.523 1.137-3.806s1.225-2.596 2.1-3.938 2.013-2.508 3.413-3.5 2.946-1.633 4.637-1.925l-.437 4.638c-1.429.292-2.698 1.035-3.806 2.231-1.108 1.167-1.867 2.567-2.275 4.2z"/>
    </symbol>
    <symbol id="icon-run" viewBox="0 0 34 32">
      <path fill="#f4f4f4" style="fill:var(--color1, #f4f4f4)" opacity=".2" d="M32 16c0 8.837-7.163 16-16 16S0 24.837 0 16 7.163 0 16 0s16 7.163 16 16z"/>
      <path fill="#f4f4f4" style="fill:var(--color1, #f4f4f4)" d="M24.729 11.907a.77.77 0 0 0-1.066-.093l-2.099 1.723-.965-2.337a.71.71 0 0 0-.146-.226 2.027 2.027 0 0 0-1.012-1.01 2.129 2.129 0 0 0-.628-.164c-.047-.024-.089-.055-.142-.071l-3.694-1.006a.773.773 0 0 0-.586.078.731.731 0 0 0-.46.42l-1.391 3.495a.738.738 0 0 0 .432.959.765.765 0 0 0 .98-.424l1.175-2.951 1.683.457c-.041.065-.085.126-.119.195l-2.157 4.568c-.031.067-.048.135-.07.205l-2.621 4.294-4.387 1.434a1.08 1.08 0 0 0-.235 1.531 1.139 1.139 0 0 0 1.566.231l4.489-1.511c.137-.098.237-.225.313-.363.056-.058.121-.105.164-.178l1.563-2.56 2.774 2.31-2.968 3.268a1.076 1.076 0 0 0 .095 1.543c.462.402 1.17.36 1.582-.093l3.704-4.078c.115-.126.184-.271.23-.422.028-.082.028-.168.034-.253 0-.043.017-.082.013-.122a1.062 1.062 0 0 0-.385-.796l-2.553-2.127c.184-.171.34-.375.453-.614l1.654-3.499.53 1.379a.683.683 0 0 0 .153.343.73.73 0 0 0 .29.198c.011.005.024.007.038.01a.72.72 0 0 0 .47.023l.003-.001c.023-.005.047-.001.07-.011a.752.752 0 0 0 .298-.212l3.013-2.499c.32-.263.185-.729-.084-1.042zM20.919 10.126c1.166 0 2.111-.924 2.111-2.063S22.085 6 20.919 6c-1.166 0-2.111.924-2.111 2.063s.945 2.063 2.111 2.063z"/>
    </symbol>

	<!-- pagination -->
	<symbol id="two-angle-left" viewBox="0 0 32 32">
      <path d="M8.928 16.944c-.128-.128-.224-.272-.288-.432s-.096-.336-.096-.512.032-.352.096-.512.16-.304.288-.432l6.128-6.112c.128-.128.224-.272.288-.432s.096-.336.096-.512-.032-.352-.096-.512-.16-.304-.288-.432c-.256-.256-.592-.384-.944-.384s-.688.128-.944.384l-6.112 6.112c-.752.752-1.168 1.776-1.168 2.832s.416 2.08 1.168 2.832l6.112 6.112c.256.256.592.384.944.384.176 0 .336-.032.512-.096.16-.064.304-.16.432-.288s.224-.272.288-.432c.064-.16.096-.336.096-.512s-.032-.352-.096-.512a1.279 1.279 0 0 0-.288-.432l-6.128-6.112zM19.44 16.944c-.128-.128-.224-.272-.288-.432s-.096-.336-.096-.512.032-.352.096-.512.16-.304.288-.432l6.128-6.112c.128-.128.224-.272.288-.432s.096-.336.096-.512-.032-.352-.096-.512-.16-.304-.288-.432c-.256-.256-.592-.384-.944-.384s-.688.128-.944.384l-6.112 6.112C16.816 13.92 16.4 14.944 16.4 16s.416 2.08 1.168 2.832l6.112 6.112c.256.256.592.384.944.384.176 0 .336-.032.512-.096.16-.064.304-.16.432-.288s.224-.272.288-.432c.064-.16.096-.336.096-.512s-.032-.352-.096-.512a1.279 1.279 0 0 0-.288-.432l-6.128-6.112z"/>
    </symbol>
    <symbol id="one-angle-left" viewBox="0 0 32 32">
      <path d="M14.133 16.947a1.334 1.334 0 0 1 0-1.894l6.12-6.107a1.334 1.334 0 1 0-1.88-1.894l-6.12 6.12a4.001 4.001 0 0 0 0 5.654l6.12 6.12a1.337 1.337 0 0 0 2.172-.434 1.331 1.331 0 0 0-.292-1.46l-6.12-6.107z"/>
    </symbol>
    <symbol id="one-angle-right" viewBox="0 0 32 32">
      <path d="M17.867 16.947a1.334 1.334 0 0 0 0-1.894l-6.12-6.107a1.334 1.334 0 1 1 1.88-1.894l6.12 6.12a4.001 4.001 0 0 1 0 5.654l-6.12 6.12a1.337 1.337 0 0 1-2.172-.434 1.331 1.331 0 0 1 .292-1.46l6.12-6.107z"/>
    </symbol>
    <symbol id="two-angle-right" viewBox="0 0 32 32">
      <path d="M23.072 15.056c.128.128.224.272.288.432s.096.336.096.512-.032.352-.096.512-.16.304-.288.432l-6.128 6.112c-.128.128-.224.272-.288.432s-.096.336-.096.512.032.352.096.512.16.304.288.432c.256.256.592.384.944.384s.688-.128.944-.384l6.112-6.112c.752-.752 1.168-1.776 1.168-2.832s-.416-2.08-1.168-2.832l-6.112-6.112a1.318 1.318 0 0 0-.944-.384 1.45 1.45 0 0 0-.512.096c-.16.064-.304.16-.432.288s-.224.272-.288.432c-.064.16-.096.336-.096.512s.032.352.096.512c.064.16.16.304.288.432l6.128 6.112zM12.56 15.056c.128.128.224.272.288.432s.096.336.096.512-.032.352-.096.512-.16.304-.288.432l-6.128 6.112c-.128.128-.224.272-.288.432s-.096.336-.096.512.032.352.096.512.16.304.288.432c.256.256.592.384.944.384s.688-.128.944-.384l6.112-6.112C15.184 18.08 15.6 17.056 15.6 16s-.416-2.08-1.168-2.832L8.32 7.056a1.318 1.318 0 0 0-.944-.384 1.45 1.45 0 0 0-.512.096c-.16.064-.304.16-.432.288s-.224.272-.288.432c-.064.16-.096.336-.096.512s.032.352.096.512c.064.16.16.304.288.432l6.128 6.112z"/>
    </symbol>
  </defs>
</svg>