<svg xmlns="http://www.w3.org/2000/svg">
	<defs>
		<symbol id="logo" viewBox="0 0 132 24">
			<path d="M4.98 13.28L0 5H2.98L6.32 10.74H6.36L9.7 5H12.68L7.7 13.28V19H4.98V13.28Z" />
			<path d="M12.6703 16.7V7.3L14.9703 5H22.1703L24.4703 7.3V16.7L22.1703 19H14.9703L12.6703 16.7ZM20.7303 16.68L21.7503 15.66V8.34L20.7303 7.32H16.4103L15.3903 8.34V15.66L16.4103 16.68H20.7303Z" />
			<path d="M26.3742 16.6V5H29.0942V15.66L30.1142 16.68H34.0342L35.0542 15.66V5H37.7742V16.6L35.3742 19H28.7742L26.3742 16.6Z" />
			<path d="M50.8781 14.36V19H48.1581V14.98L46.9581 13.64H42.5981V19H39.8781V5H48.6581L50.7981 7.16V11.4L49.4381 12.78L50.8781 14.36ZM42.5981 11.4H47.4181L48.1181 10.7V7.98L47.4181 7.28H42.5981V11.4Z" />
			<path d="M57.8234 5H67.9434V7.3H60.5434V10.84H67.3634V13.1H60.5434V16.7H67.9434V19H57.8234V5Z" />
			<path d="M69.4523 5H71.8923L78.1323 14.5H78.1723V5H80.7923V19H78.3523L72.1123 9.52H72.0723V19H69.4523V5Z" />
			<path d="M82.8977 5H93.0177V7.3H85.6177V10.84H92.4377V13.1H85.6177V16.7H93.0177V19H82.8977V5Z" />
			<path d="M105.527 14.36V19H102.807V14.98L101.607 13.64H97.2466V19H94.5266V5H103.307L105.447 7.16V11.4L104.087 12.78L105.527 14.36ZM97.2466 11.4H102.067L102.767 10.7V7.98L102.067 7.28H97.2466V11.4Z" />
			<path d="M107.323 16.7V7.3L109.623 5H116.583L118.843 7.26V9.4H116.123V8.26L115.183 7.32H111.063L110.043 8.34V15.66L111.063 16.68H115.223L116.203 15.7V13.52H113.203V11.2H118.843V16.7L116.543 19H109.623L107.323 16.7Z" />
			<path d="M123.828 13.28L118.848 5H121.828L125.168 10.74H125.208L128.548 5H131.528L126.548 13.28V19H123.828V13.28Z" />
		</symbol>
		<symbol id="icon-facebook" viewBox="0 0 28 28">
			<path d="M17.0799 4.06011C17.2899 4.06011 17.4999 4.06011 17.9199 4.06011V7.21011C17.7099 7.21011 17.2899 7.21011 16.8699 7.21011C16.4499 7.21011 16.0299 7.21011 15.8199 7.42011C15.6099 7.63011 15.6099 7.84011 15.6099 8.33011C15.6099 8.75011 15.6099 9.03011 15.6099 9.45011H17.9199V12.1101H15.6099V23.6601H12.0399V12.0401H10.1499V9.38011H12.0399V8.47011C12.0399 6.93011 12.2499 5.81011 12.6699 5.32011C13.2999 4.41011 14.5599 3.99011 16.4499 3.99011C16.6599 4.06011 16.8699 4.06011 17.0799 4.06011Z" />
		</symbol>
		<symbol id="icon-instagram" viewBox="0 0 28 28">
			<path d="M25.1277 9.41152C25.114 8.47146 24.9398 7.53885 24.6065 6.65964C24.0231 5.15827 22.8352 3.97109 21.3313 3.38991C20.4618 3.06332 19.5426 2.88822 18.6122 2.86835C17.4155 2.81495 17.0361 2.80005 13.9986 2.80005C10.961 2.80005 10.5716 2.80005 9.38372 2.86835C8.45454 2.88822 7.5353 3.06332 6.66582 3.38991C5.16196 3.97109 3.97279 5.15827 3.39065 6.65964C3.06351 7.52767 2.88688 8.44538 2.86946 9.37302C2.81598 10.5689 2.7998 10.9477 2.7998 13.9802C2.7998 17.0127 2.7998 17.4002 2.86946 18.5873C2.88812 19.5162 3.06351 20.4327 3.39065 21.3032C3.97404 22.8033 5.16195 23.9905 6.66706 24.5717C7.53281 24.9095 8.45205 25.1007 9.38497 25.1305C10.5828 25.1839 10.9622 25.2001 13.9998 25.2001C17.0374 25.2001 17.4267 25.2001 18.6146 25.1305C19.5438 25.1119 20.4631 24.9368 21.3338 24.6102C22.8377 24.0278 24.0256 22.8406 24.609 21.3405C24.9361 20.4712 25.1115 19.5547 25.1301 18.6246C25.1836 17.43 25.1998 17.0512 25.1998 14.0174C25.1973 10.9849 25.1973 10.5999 25.1277 9.41152ZM13.9911 19.7149C10.8142 19.7149 8.24059 17.1456 8.24059 13.974C8.24059 10.8024 10.8142 8.23302 13.9911 8.23302C17.1655 8.23302 19.7416 10.8024 19.7416 13.974C19.7416 17.1456 17.1655 19.7149 13.9911 19.7149ZM19.9705 9.35936C19.2279 9.35936 18.6296 8.7608 18.6296 8.02067C18.6296 7.28055 19.2279 6.68199 19.9705 6.68199C20.7106 6.68199 21.3102 7.28055 21.3102 8.02067C21.3102 8.7608 20.7106 9.35936 19.9705 9.35936Z" />
			<path d="M13.9932 17.4789C15.9282 17.4789 17.4967 15.9104 17.4967 13.9754C17.4967 12.0405 15.9282 10.4719 13.9932 10.4719C12.0583 10.4719 10.4897 12.0405 10.4897 13.9754C10.4897 15.9104 12.0583 17.4789 13.9932 17.4789Z" />
		</symbol>
		<symbol id="icon-youtube" viewBox="0 0 28 28">
			<path fill-rule="evenodd" clip-rule="evenodd" d="M21.2099 5.24986C20.0199 5.17986 17.5699 5.10986 13.8599 5.10986H13.3699C9.79985 5.10986 7.41989 5.17986 6.22989 5.31986C4.61989 5.45986 3.49985 5.87986 2.86985 6.43986C2.30985 6.92986 1.88987 7.83986 1.74987 9.02986C1.67987 9.79986 1.60986 11.4099 1.60986 13.8599V14.2099C1.60986 16.5199 1.67985 18.1299 1.81985 18.8999C2.02985 20.0199 2.37989 20.8599 3.07989 21.3499C3.77989 21.9099 4.96987 22.2599 6.64987 22.3999C7.83987 22.4699 10.2899 22.5399 13.9999 22.5399H14.4899C18.0599 22.5399 20.4399 22.4699 21.6299 22.3299C23.2399 22.1899 24.3599 21.7699 24.9899 21.2099C25.5499 20.7199 25.9699 19.8099 26.1099 18.6199C26.1799 17.8499 26.2499 16.2399 26.2499 13.7899V13.4399C26.2499 11.1299 26.1799 9.51986 26.0399 8.74986C25.8299 7.62986 25.4799 6.78986 24.7799 6.29986C24.0799 5.73986 22.8899 5.38986 21.2099 5.24986ZM18.4799 13.8599L10.7799 18.4799V9.23986L18.4799 13.8599Z" />
		</symbol>
		<symbol id="icon-menu" viewBox="0 0 32 32">
			<path d="M28 13.3334H4" stroke="#242424" stroke-width="2" stroke-linecap="round" stroke-linejoin="round" />
			<path d="M28 8H4" stroke="#242424" stroke-width="2" stroke-linecap="round" stroke-linejoin="round" />
			<path d="M28 18.6666H4" stroke="#242424" stroke-width="2" stroke-linecap="round" stroke-linejoin="round" />
			<path d="M28 24H4" stroke="#242424" stroke-width="2" stroke-linecap="round" stroke-linejoin="round" />
		</symbol>
		  <symbol id="icon-menu-close" viewBox="0 0 32 32">
    		<path d="M24 8L8 24" stroke="#F4F4F4" stroke-width="2" stroke-linecap="round" stroke-linejoin="round"/>
    		<path d="M8 8L24 24" stroke="#F4F4F4" stroke-width="2" stroke-linecap="round" stroke-linejoin="round"/>
  		</symbol>
		<symbol id="icon-sun" viewBox="0 0 32 32">
			<path d="M14.254 13.505l0.363 0.372-4.466-12.797 5.321 12.466 0.018-0.52 0.441-13.027 0.441 13.026 0.018 0.52 5.321-12.466-4.466 12.797 9.465-9.702-8.787 10.32 12.331-5.628-11.922 6.449 13.531-0.793-13.446 1.707 12.904 4.148-13.155-3.266 10.534 8.53-11.087-7.798 6.741 11.759-7.521-11.276 2.038 13.4-2.94-13.232-2.94 13.232 2.038-13.4-7.521 11.276 6.741-11.759-11.087 7.798 10.534-8.53-13.155 3.266 12.904-4.148-13.446-1.707 13.531 0.793-11.922-6.449 12.331 5.628-8.787-10.32 9.102 9.33zM15.185 14.071l-0.646 0.4-0.458 0.607-0.208 0.731 0.070 0.757 0.339 0.68 0.562 0.512 0.709 0.275h0.76l0.709-0.275 0.562-0.512 0.339-0.68 0.070-0.757-0.208-0.731-0.458-0.607-0.646-0.4-0.747-0.14-0.747 0.14z">
			</path>
		</symbol>
		<symbol id="star-active" viewBox="0 0 18 18">
			<path d="M8.04894 2.92705C8.3483 2.00574 9.6517 2.00574 9.95106 2.92705L10.7961 5.52786C10.93 5.93989 11.3139 6.21885 11.7472 6.21885H14.4818C15.4505 6.21885 15.8533 7.45846 15.0696 8.02786L12.8572 9.63525C12.5067 9.8899 12.3601 10.3413 12.494 10.7533L13.339 13.3541C13.6384 14.2754 12.5839 15.0415 11.8002 14.4721L9.58779 12.8647C9.2373 12.6101 8.7627 12.6101 8.41222 12.8647L6.19983 14.4721C5.41612 15.0415 4.36164 14.2754 4.66099 13.3541L5.50604 10.7533C5.63992 10.3413 5.49326 9.8899 5.14277 9.63525L2.93039 8.02787C2.14668 7.45846 2.54945 6.21885 3.51818 6.21885H6.25283C6.68606 6.21885 7.07001 5.93989 7.20389 5.52786L8.04894 2.92705Z" fill="#EEA10C" />
		</symbol>
		<symbol id="star-inactive" viewBox="0 0 18 18">
			<path d="M8.04894 2.92705C8.3483 2.00574 9.6517 2.00574 9.95106 2.92705L10.7961 5.52786C10.93 5.93989 11.3139 6.21885 11.7472 6.21885H14.4818C15.4505 6.21885 15.8533 7.45846 15.0696 8.02786L12.8572 9.63525C12.5067 9.8899 12.3601 10.3413 12.494 10.7533L13.339 13.3541C13.6384 14.2754 12.5839 15.0415 11.8002 14.4721L9.58779 12.8647C9.2373 12.6101 8.7627 12.6101 8.41222 12.8647L6.19983 14.4721C5.41612 15.0415 4.36164 14.2754 4.66099 13.3541L5.50604 10.7533C5.63992 10.3413 5.49326 9.8899 5.14277 9.63525L2.93039 8.02787C2.14668 7.45846 2.54945 6.21885 3.51818 6.21885H6.25283C6.68606 6.21885 7.07001 5.93989 7.20389 5.52786L8.04894 2.92705Z" fill="#F4F4F4" fill-opacity="0.2" />
		</symbol>
		<symbol id="arrow" viewBox="0 0 16 16">
			<path d="M7.5 14L14 7.5M14 7.5L7.5 1M14 7.5H1" stroke="#242424" stroke-width="1.3" stroke-linecap="round" stroke-linejoin="round" />
		</symbol>
		<symbol id="group" viewBox="0 0 16 16">
			<path d="M14.8234 4.72544C14.6138 4.47504 14.2403 4.44212 13.9899 4.65092L12.349 6.02938L11.5943 4.15967C11.5675 4.08949 11.5267 4.03057 11.4799 3.97859C11.3257 3.63549 11.058 3.34091 10.6889 3.17023C10.5286 3.09745 10.3631 3.05846 10.1977 3.0394C10.1613 3.02034 10.1283 2.99521 10.0868 2.98222L7.19901 2.17732C7.03699 2.13314 6.87411 2.16173 6.74068 2.2397C6.58213 2.29342 6.4461 2.40865 6.38112 2.57587L5.29378 5.37178C5.17594 5.67589 5.3267 6.01899 5.63168 6.13855C5.93492 6.25638 6.27888 6.10476 6.39758 5.79978L7.31598 3.43882L8.63119 3.80444C8.59913 3.85643 8.56447 3.90495 8.53848 3.9604L6.85245 7.61491C6.82819 7.66863 6.81519 7.72322 6.79786 7.77867L4.7488 11.214L1.31955 12.3611C0.931399 12.6514 0.84909 13.1981 1.13587 13.5862C1.42439 13.9752 1.97282 14.0575 2.36011 13.7708L5.86907 12.5621C5.97651 12.4841 6.05448 12.3819 6.1134 12.2719C6.15759 12.2251 6.20784 12.1878 6.24163 12.1298L7.46327 10.0816L9.63189 11.9296L7.31165 14.5445C6.99194 14.9049 7.024 15.4603 7.38616 15.7791C7.74745 16.1005 8.30108 16.0667 8.62252 15.7046L11.5181 12.4426C11.6082 12.342 11.6619 12.2259 11.6983 12.1047C11.7199 12.0388 11.7199 11.9704 11.7251 11.9019C11.7251 11.8673 11.7381 11.8361 11.7355 11.804C11.7277 11.5649 11.6307 11.3327 11.4349 11.1672L9.43955 9.46557C9.58337 9.32867 9.70554 9.16579 9.79391 8.97431L11.0866 6.17494L11.5007 7.27788C11.5181 7.37578 11.551 7.47196 11.6203 7.55253C11.6827 7.62704 11.7624 7.67643 11.8473 7.71109C11.856 7.71542 11.8664 7.71628 11.8768 7.71888C11.9305 7.73794 11.9851 7.75614 12.0414 7.75874C12.1081 7.7648 12.1757 7.75614 12.2441 7.73708C12.2459 7.73621 12.2467 7.73621 12.2467 7.73621C12.2649 7.73188 12.2831 7.73534 12.3013 7.72755C12.3975 7.69116 12.4711 7.62964 12.5344 7.55773L14.8893 5.55892C15.1397 5.34838 15.034 4.97583 14.8234 4.72544Z" fill="#F4F4F4" />
			<path d="M11.8448 3.30102C12.7564 3.30102 13.4954 2.56206 13.4954 1.65051C13.4954 0.738959 12.7564 0 11.8448 0C10.9333 0 10.1943 0.738959 10.1943 1.65051C10.1943 2.56206 10.9333 3.30102 11.8448 3.30102Z" fill="#F4F4F4" />
		</symbol>
		<symbol id="trash" viewBox="0 0 16 16">
			<path d="M10.6667 3.99992V3.46659C10.6667 2.71985 10.6667 2.34648 10.5213 2.06126C10.3935 1.81038 10.1895 1.60641 9.93865 1.47858C9.65344 1.33325 9.28007 1.33325 8.53333 1.33325H7.46667C6.71993 1.33325 6.34656 1.33325 6.06135 1.47858C5.81046 1.60641 5.60649 1.81038 5.47866 2.06126C5.33333 2.34648 5.33333 2.71985 5.33333 3.46659V3.99992M6.66667 7.66659V10.9999M9.33333 7.66659V10.9999M2 3.99992H14M12.6667 3.99992V11.4666C12.6667 12.5867 12.6667 13.1467 12.4487 13.5746C12.2569 13.9509 11.951 14.2569 11.5746 14.4486C11.1468 14.6666 10.5868 14.6666 9.46667 14.6666H6.53333C5.41323 14.6666 4.85318 14.6666 4.42535 14.4486C4.04903 14.2569 3.74307 13.9509 3.55132 13.5746C3.33333 13.1467 3.33333 12.5867 3.33333 11.4666V3.99992" stroke="#242424" stroke-width="1.3" stroke-linecap="round" stroke-linejoin="round" />
		</symbol>
		<symbol id="close" viewBox="0 0 24 24">
			<path d="M17 7L7 17M7 7L17 17" stroke="#F4F4F4" stroke-width="1.5" stroke-linecap="round" stroke-linejoin="round" />
		</symbol>
		<symbol id="heart" viewBox="0 0 18 18">
			<path d="M15.6306 3.45765C15.2475 3.0744 14.7927 2.77038 14.2921 2.56296C13.7915 2.35554 13.2549 2.24878 12.7131 2.24878C12.1712 2.24878 11.6347 2.35554 11.1341 2.56296C10.6335 2.77038 10.1786 3.0744 9.79558 3.45765L9.00058 4.25265L8.20558 3.45765C7.43181 2.68388 6.38235 2.24918 5.28808 2.24918C4.1938 2.24918 3.14435 2.68388 2.37058 3.45765C1.59681 4.23142 1.16211 5.28087 1.16211 6.37515C1.16211 7.46942 1.59681 8.51888 2.37058 9.29265L3.16558 10.0876L9.00058 15.9226L14.8356 10.0876L15.6306 9.29265C16.0138 8.90958 16.3178 8.45476 16.5253 7.95416C16.7327 7.45357 16.8394 6.91701 16.8394 6.37515C16.8394 5.83328 16.7327 5.29673 16.5253 4.79613C16.3178 4.29554 16.0138 3.84072 15.6306 3.45765Z" stroke="#242424" stroke-width="1.5" stroke-linecap="round" stroke-linejoin="round" />
		</symbol>
	</defs>
</svg>